<svg width="2329" height="3299" viewBox="0 0 2329 3299" fill="none" xmlns="http://www.w3.org/2000/svg">
<path d="M1541.99 2117.03L1542.47 2114.12H1539.52C1535.26 2114.12 1531.21 2114.17 1527.3 2114.22C1519.17 2114.33 1511.66 2114.43 1504.15 2114.02L1504.14 2114.02C1499.68 2113.81 1495.96 2114.59 1492.83 2116.64C1489.75 2118.68 1487.52 2121.77 1485.67 2125.63C1473.29 2150.92 1460.68 2176.1 1448.05 2201.3C1444.26 2208.86 1440.47 2216.43 1436.68 2224L1436.68 2224.01C1435.47 2226.45 1434.49 2228.46 1433.88 2230.16C1433.26 2231.89 1432.92 2233.59 1433.27 2235.35C1433.62 2237.1 1434.6 2238.55 1435.82 2239.91C1437.03 2241.26 1438.71 2242.76 1440.74 2244.57C1441.99 2245.71 1443.34 2246.85 1444.69 2247.9C1456.45 2257.09 1466.77 2267.25 1474.04 2280.15C1476.66 2284.81 1479.77 2289.32 1482.79 2293.71C1484.53 2296.24 1486.24 2298.72 1487.82 2301.17C1490.49 2305.35 1494 2307.77 1499.13 2308.59L1499.14 2308.59L1499.15 2308.59C1514.32 2310.89 1529.39 2313.38 1544.35 2316.27L1544.35 2316.28C1550.07 2317.38 1555.07 2316.7 1560.28 2314.53L1560.29 2314.53C1571.36 2309.88 1582.44 2305.31 1593.55 2300.74C1603.05 2296.82 1612.56 2292.9 1622.08 2288.93L1622.09 2288.92L1622.11 2288.92C1623 2288.53 1623.77 2288.07 1624.43 2287.64C1624.71 2287.45 1624.96 2287.29 1625.18 2287.13C1625.54 2286.9 1625.85 2286.68 1626.23 2286.45L1630.32 2283.93L1625.91 2282.03C1621.74 2280.22 1618 2280.22 1614.83 2280.22H1614.72C1611.03 2280.22 1607.35 2280.24 1603.69 2280.27C1594.01 2280.32 1584.42 2280.38 1574.81 2280.02L1574.81 2280.02C1569.24 2279.83 1563.34 2278.77 1558.26 2276.71L1558.26 2276.7C1547.86 2272.51 1537.74 2267.68 1527.59 2262.83C1525.73 2261.94 1523.86 2261.05 1521.99 2260.16L1521.99 2260.16C1519.59 2259.02 1517.94 2258.21 1516.78 2257.46C1515.64 2256.73 1515.22 2256.22 1515.02 2255.8C1514.81 2255.38 1514.67 2254.71 1514.78 2253.34C1514.89 2251.94 1515.24 2250.13 1515.77 2247.52C1519.72 2228.27 1523.67 2209.05 1527.62 2189.82C1531.57 2170.6 1535.52 2151.38 1539.47 2132.13C1540.14 2128.91 1540.64 2125.63 1541.16 2122.26C1541.42 2120.55 1541.69 2118.81 1541.99 2117.03Z" stroke="#206BDC" stroke-width="5"/>
</svg>
