<svg width="2329" height="3299" viewBox="0 0 2329 3299" fill="none" xmlns="http://www.w3.org/2000/svg">
<path d="M1559.77 2998.2L1563.73 2998.76L1562.5 2994.95C1561.77 2992.7 1561.14 2990.54 1560.53 2988.46C1559.46 2984.82 1558.47 2981.46 1557.23 2978.47L1557.22 2978.43L1557.2 2978.4C1551.79 2966.35 1552.41 2953.96 1553.51 2940.42L1553.51 2940.42C1554.26 2931.14 1553.7 2921.67 1553.15 2912.42C1552.95 2909.02 1552.75 2905.65 1552.62 2902.32L1552.62 2902.29L1552.62 2902.26C1552.56 2901.3 1552.37 2900.16 1552.02 2899.08C1551.69 2898.06 1551.09 2896.78 1550 2895.89L1550 2895.88C1548.94 2895.02 1547.84 2894.07 1546.71 2893.09C1544.3 2891.01 1541.74 2888.8 1539.09 2886.99C1535.06 2884.24 1530.43 2882.09 1524.7 2881.92C1502.42 2881.22 1480.02 2880.8 1457.48 2885.88C1438.97 2889.98 1420.9 2894.88 1405.88 2908.24C1404.32 2909.57 1402.55 2910.7 1400.59 2911.95L1400.47 2912.03C1398.52 2913.27 1396.39 2914.64 1394.48 2916.34C1390.88 2919.42 1387.38 2923.01 1384.8 2927.2C1379.48 2935.73 1374.32 2944.53 1370.06 2953.66C1364.89 2964.73 1366.28 2976.41 1367.57 2987.2C1367.77 2988.88 1367.96 2990.53 1368.13 2992.16C1368.24 2993.41 1368.84 2994.42 1369.3 2995.08C1369.54 2995.43 1369.8 2995.76 1370.02 2996.04C1370.05 2996.08 1370.08 2996.11 1370.11 2996.15C1370.3 2996.39 1370.45 2996.59 1370.6 2996.79L1370.6 2996.8L1370.61 2996.8C1372.81 2999.78 1374.99 3002.79 1377.19 3005.81C1382.24 3012.77 1387.33 3019.77 1392.65 3026.55C1395.01 3029.61 1399.25 3032.28 1403.12 3032.89C1408.88 3033.87 1414.76 3034.33 1420.52 3034.77C1423.07 3034.97 1425.6 3035.17 1428.08 3035.41L1428.08 3035.41C1433.95 3035.97 1439.01 3034.36 1443.8 3031.21L1443.81 3031.2L1443.82 3031.19C1444.81 3030.53 1445.81 3029.86 1446.81 3029.19C1457.09 3022.35 1467.89 3015.15 1474.86 3003.51C1477.36 2999.38 1480.93 2997.06 1485.98 2996.71C1491.24 2996.38 1496.43 2995.7 1501.57 2995.03C1502.69 2994.89 1503.81 2994.74 1504.93 2994.6C1519.39 2992.82 1533.62 2992.46 1547.57 2996.23L1547.57 2996.24L1547.58 2996.24C1550.23 2996.94 1553.06 2997.31 1556.25 2997.72C1557.37 2997.87 1558.54 2998.02 1559.77 2998.2Z" stroke="#206BDC" stroke-width="5"/>
</svg>
