<svg width="206" height="209" viewBox="0 0 206 209" fill="none" xmlns="http://www.w3.org/2000/svg">
<path d="M111.987 6.0314L112.472 3.1204H109.521C105.255 3.1204 101.205 3.1729 97.3003 3.22351C89.1673 3.32894 81.6644 3.4262 74.1545 3.02385L74.1425 3.02327C69.6771 2.80544 65.9587 3.58665 62.8333 5.64485C59.7456 7.67818 57.5216 10.7725 55.6709 14.6302C43.2932 39.9236 30.6804 65.096 18.0524 90.2989C14.2626 97.8626 10.4714 105.429 6.68469 113.002L6.6802 113.011C5.47424 115.448 4.48851 117.463 3.87962 119.163C3.26106 120.891 2.91602 122.591 3.26985 124.351C3.6226 126.105 4.59575 127.546 5.82422 128.912C7.03373 130.257 8.70858 131.76 10.744 133.575C11.9874 134.714 13.3354 135.854 14.6899 136.897C26.4498 146.088 36.7687 156.248 44.0429 169.148C46.6634 173.813 49.769 178.322 52.793 182.713C54.5302 185.235 56.2405 187.719 57.8164 190.17C60.4886 194.351 64.0019 196.774 69.128 197.589L69.1373 197.591L69.1467 197.592C84.3248 199.889 99.3895 202.383 114.346 205.275L114.349 205.275C120.074 206.376 125.072 205.699 130.282 203.528L130.288 203.526C141.357 198.882 152.444 194.313 163.551 189.737C173.047 185.823 182.558 181.904 192.084 177.927L192.095 177.923L192.106 177.918C193.001 177.535 193.765 177.07 194.425 176.639C194.712 176.451 194.956 176.287 195.184 176.133C195.536 175.896 195.851 175.684 196.231 175.449L200.322 172.932L195.913 171.026C191.737 169.22 187.997 169.22 184.833 169.22H184.721C181.026 169.22 177.353 169.243 173.694 169.265C164.008 169.325 154.423 169.383 144.815 169.022L144.807 169.022C139.237 168.83 133.337 167.772 128.264 165.705L128.256 165.702C117.856 161.508 107.743 156.679 97.5933 151.832C95.7286 150.941 93.8627 150.05 91.9934 149.162L91.991 149.161C89.5889 148.023 87.9448 147.209 86.7823 146.461C85.6447 145.73 85.2213 145.217 85.018 144.8C84.8118 144.377 84.6666 143.713 84.7782 142.342C84.8918 140.945 85.2382 139.13 85.7704 136.52C89.7201 117.271 93.6698 98.0475 97.6196 78.8235C101.569 59.5995 105.519 40.3752 109.469 21.1259C110.139 17.9072 110.642 14.635 111.16 11.2628C111.424 9.54692 111.691 7.80515 111.987 6.0314Z" stroke="#206BDC" stroke-width="5"/>
</svg>
