<svg width="103" height="65" viewBox="0 0 103 65" fill="none" xmlns="http://www.w3.org/2000/svg">
<path d="M5.35005 39.5204L4.27111 42.1474L7.01369 42.8846C32.352 49.6949 56.2849 55.5029 81.0098 61.1086L83.1865 61.6021L83.9227 59.4951C89.7393 42.8475 94.7638 26.8729 98.9871 10.08L99.6614 7.39906L96.9264 6.99685C95.6042 6.80241 94.5266 6.60993 93.5514 6.43574C93.3062 6.39194 93.0675 6.3493 92.833 6.30808C91.6891 6.10699 90.6089 5.93252 89.4941 5.87385L89.4941 5.87384L89.4858 5.87343C84.8434 5.64458 80.1949 5.40469 75.5396 5.16445C65.9834 4.67129 56.3982 4.17665 46.7774 3.77291C46.1789 3.74298 45.5776 3.71183 44.9738 3.68056C39.6027 3.40234 34.0396 3.11418 28.5516 3.57927L28.5327 3.58087L28.5139 3.58275C26.7835 3.7558 24.7361 4.23794 22.9243 5.00612C21.2349 5.72242 19.1929 6.91957 18.2266 8.85221L18.2218 8.86177L18.2171 8.87136C14.8917 15.6667 12.066 22.7598 9.06137 30.3019C7.86675 33.3006 6.64386 36.3703 5.35005 39.5204Z" stroke="#206BDC" stroke-width="5"/>
</svg>
