<svg width="169" height="245" viewBox="0 0 169 245" fill="none" xmlns="http://www.w3.org/2000/svg">
<path d="M5.96241 223.952L3.77801 224.69L4.33722 226.927L4.35281 226.989C4.54101 227.742 4.76011 228.619 4.99084 229.311L5.31555 230.285L6.23123 230.75C8.10434 231.7 9.99084 232.674 11.8904 233.654C16.7041 236.137 21.602 238.665 26.5797 240.974C29.1484 242.246 32.2624 242.438 34.7668 242.102C38.8516 241.653 42.9293 241.058 46.968 240.469L47.1359 240.444C51.2513 239.844 55.328 239.251 59.4214 238.807C62.2837 238.519 64.7677 237.631 66.7315 235.916C68.6907 234.206 69.8971 231.88 70.5836 229.144C72.3674 222.395 75.851 216.697 80.1059 210.661C92.7222 192.763 108.808 180.097 129.291 172.68C129.464 172.62 129.614 172.555 129.729 172.503C129.849 172.448 129.962 172.391 130.031 172.357C130.112 172.316 130.149 172.298 130.179 172.284C130.18 172.283 130.181 172.283 130.181 172.283L130.184 172.282L130.214 172.271C136.955 169.83 140.47 164.78 142.622 158.648L142.626 158.637C146.417 147.661 150.396 136.721 154.865 126.095C158.967 116.454 161.367 106.476 158.796 95.5479L158.793 95.5348C154.953 79.6009 157.511 64.6787 164.335 49.662C166.586 44.756 166.411 39.7757 165.736 35.1706C165.489 33.4828 165.161 31.7682 164.845 30.1185C164.734 29.5385 164.624 28.9666 164.521 28.4066C164.112 26.2048 163.774 24.1138 163.658 22.0786L163.656 22.0363L163.652 21.9941C163.536 20.7157 162.852 19.6413 162.254 18.9282C161.619 18.1693 160.805 17.4868 159.96 17.0257L159.95 17.0204C155.865 14.8161 151.714 12.724 147.15 10.4243C144.644 9.16162 142.014 7.83639 139.203 6.39565L135.864 4.68432L135.57 8.42501C135.21 13.0134 134.932 15.972 134.66 18.8619C134.631 19.1688 134.603 19.4749 134.574 19.7821C134.259 22.9963 134.077 26.3238 133.898 29.589C133.792 31.5251 133.687 33.4393 133.556 35.295C133.198 40.3913 132.636 45.2964 131.352 49.9565L131.35 49.9646L131.348 49.9727C126.985 66.2329 121.031 82.0174 115.024 97.9363C110.462 110.001 107.276 122.379 106.864 135.535C106.717 139.475 106.055 141.163 105.101 142.109C104.084 143.118 102.201 143.84 98.0635 144.339L98.0617 144.339C96.5569 144.521 95.0654 144.712 93.5838 144.901C88.4681 145.556 83.4701 146.195 78.449 146.423L78.4364 146.424L78.4238 146.424C72.3883 146.76 67.6342 148.943 63.6611 153.597L63.656 153.603C59.5061 158.496 55.2843 163.389 51.0584 168.286C45.6816 174.518 40.2981 180.757 35.0476 187.013L35.0413 187.021L35.0351 187.028C33.0903 189.383 31.0643 192.151 29.913 195.366C25.1381 208.296 19.5795 219.352 5.96241 223.952ZM93.963 147.374C95.4295 147.186 96.896 146.998 98.3625 146.821L32.2626 196.22C33.2626 193.42 35.0625 190.92 36.9625 188.62C42.2187 182.358 47.5687 176.158 52.925 169.95C57.1478 165.056 61.3746 160.158 65.5625 155.22C69.0625 151.12 73.1625 149.221 78.5625 148.921C83.696 148.687 88.8295 148.03 93.963 147.374Z" stroke="#206BDC" stroke-width="5"/>
</svg>
